<?xml version="1.0" encoding="utf-8"?>
<!-- Generator: Adobe Illustrator 19.1.0, SVG Export Plug-In . SVG Version: 6.00 Build 0)  -->
<svg version="1.1" id="Layer_1" xmlns="http://www.w3.org/2000/svg" xmlns:xlink="http://www.w3.org/1999/xlink" x="0px" y="0px"
	 viewBox="0 0 249.3 59.5" style="enable-background:new 0 0 249.3 59.5;" xml:space="preserve">
<style type="text/css">
	.st0{fill:#6DBAD3;}
</style>
<g>
	<g>
		<g>
			<path class="st0" d="M37.4,56.2c-2.4-2.6-3.5-6.2-3.5-11c0-4.8,1.2-8.4,3.5-11c2.3-2.6,5.7-3.8,10.1-3.8c4.4,0,7.8,1.3,10.1,3.8
				c2.3,2.6,3.5,6.2,3.5,11c0,4.8-1.2,8.4-3.5,11c-2.4,2.6-5.7,3.8-10.1,3.8C43.1,60,39.7,58.7,37.4,56.2z M42.4,37.9
				c-1.1,1.3-1.6,3.7-1.6,7.3c0,3.6,0.5,6,1.6,7.2c1.1,1.3,2.8,1.9,5.1,1.9c2.3,0,4-0.6,5-1.9c1.1-1.3,1.6-3.7,1.6-7.2
				c0-3.6-0.5-6-1.6-7.3c-1.1-1.3-2.8-1.9-5-1.9C45.2,36,43.5,36.7,42.4,37.9z"/>
			<path class="st0" d="M67.1,59.5v-33c0-3.8,3.1-6.8,6.8-6.8h0.1v32.9C74.1,56.4,71,59.5,67.1,59.5L67.1,59.5z"/>
			<path class="st0" d="M82,23.6L82,23.6c0-1.8,1.4-3.2,3.2-3.2h0.8c1.8,0,3.2,1.4,3.2,3.2v0c0,1.8-1.4,3.2-3.2,3.2h-0.8
				C83.4,26.8,82,25.4,82,23.6z M82.1,59.5v-22c0-3.8,3.1-6.8,6.8-6.8h0.1v21.9C89.1,56.4,85.9,59.5,82.1,59.5L82.1,59.5z"/>
			<path class="st0" d="M94.9,44.8c0-4.7,1.1-8.3,3.4-10.8c2.3-2.5,5.6-3.7,9.9-3.7c1.5,0,3.1,0.2,4.8,0.5v-4.3
				c0-3.8,3.1-6.8,6.8-6.8h0.1v30.6c0,2.7-1,4.9-3,6.8c-2,1.9-5.1,2.9-9.2,2.9c-1,0-1.9-0.1-2.9-0.2c-0.9-0.2-2.1-0.5-3.3-1.2
				c-1.3-0.6-2.4-1.5-3.3-2.5c-0.9-1-1.7-2.5-2.4-4.5C95.2,49.7,94.9,47.4,94.9,44.8z M101.8,44.4c0,3.4,0.4,5.8,1.3,7.4
				c0.9,1.5,2.4,2.3,4.6,2.3c3.5,0,5.2-1,5.2-3.1V36.2c-1.4-0.3-2.9-0.5-4.6-0.5c-2.2,0-3.8,0.6-4.9,1.9
				C102.4,38.9,101.8,41.2,101.8,44.4z"/>
			<path class="st0" d="M125.1,50.1c0-0.6,0.1-1.2,0.2-1.8c0.1-0.6,0.4-1.4,0.9-2.3c0.5-0.9,1.1-1.7,2-2.4c0.8-0.7,2.1-1.3,3.7-1.8
				c1.6-0.5,3.5-0.7,5.8-0.7c1.6,0,3.3,0.1,5.1,0.4c0-3.7-2-5.5-6.1-5.5c-3.2,0-8.5,0.1-8.5,0.1v0c0-3.2,2.5-5.8,5.7-5.8
				c1.5,0,2.9,0,3.2,0c4.1,0,7.3,1,9.4,3.1c2.2,2.1,3.3,5.1,3.3,9.1v7.8c0,2.7-1,4.9-3,6.8c-2,1.9-5,2.9-9.1,2.9
				c-4.3,0-7.4-1-9.4-2.9C126.1,55.2,125.1,52.9,125.1,50.1z M132,49.3c0,3.1,1.8,4.6,5.4,4.6c0,0,0,0,0.1,0c3.4,0,5.2-1.5,5.2-4.4
				v-3.6c-1.6-0.2-3-0.3-4.1-0.4C134.2,45.5,132,46.8,132,49.3z"/>
			<path class="st0" d="M156.2,59.5v-33c0-3.8,3.1-6.8,6.8-6.8h0.1v32.9C163.1,56.4,160,59.5,156.2,59.5L156.2,59.5z"/>
			<path class="st0" d="M169.8,45.4c0-4.6,1-8.3,3.1-11.1s5.3-4.1,9.8-4.1c4.2,0,7.4,1.3,9.6,4c2.2,2.7,3.3,6,3.3,9.9
				c0,1.6,0,2.8-0.1,3.6h-18.7c0.2,2.5,0.9,4.2,2.2,5c1.3,0.8,3,1.3,5.1,1.3c3.4,0,10.9,0,10.9,0c0,0.1,0,0.2,0,0.3
				c0,3.1-2.6,5.7-5.7,5.7H183c-1.3,0-2.5-0.1-3.6-0.3c-1.1-0.2-2.3-0.6-3.5-1.3c-1.2-0.7-2.3-1.5-3.1-2.5c-0.9-1-1.6-2.4-2.1-4.2
				C170.1,49.9,169.8,47.8,169.8,45.4z M176.8,43h12.5c-0.2-2-0.8-3.6-1.8-5c-1-1.4-3.2-2-5-2c-1.7,0-3.1,0.6-4,1.7
				C177.5,38.7,176.9,40.5,176.8,43z"/>
			<path class="st0" d="M27.4,19.8v32.9c0,3.8-3.1,6.9-6.9,6.9V43.4H6.9v9.2c0,3.8-3.1,6.9-6.9,6.9v-33c0-3.8,3.1-6.8,6.8-6.8h0.1
				v17.1h13.5V26.6c0-3.8,3.1-6.8,6.8-6.8H27.4z"/>
		</g>
	</g>
	<path class="st0" d="M227.1,0.5l-18.2,12.7c-0.7,0.5-1.1,1.3-1.1,2.1v30.3c0,1,0.8,1.7,1.7,1.7h19c11.5,0,20.8-9.3,20.8-20.8V15.3
		c0-0.8-0.4-1.6-1.1-2.1L230.1,0.5C229.2-0.2,228-0.2,227.1,0.5z M235.5,34.4c0,2.2-1.8,4-4,4V29h-7.9v5.4c0,2.2-1.8,4-4,4V19.2
		c0-2.2,1.8-4,4-4h0.1v10h7.9v-6c0-2.2,1.8-4,4-4h0.1V34.4z"/>
</g>
</svg>
